<svg width="132" height="20" viewBox="0 0 132 20" fill="none" xmlns="http://www.w3.org/2000/svg">
<path d="M0.710227 2.99006V0.454545H12.6562V2.99006H8.20312V15H5.16335V2.99006H0.710227ZM17.9137 15.2131C16.8105 15.2131 15.8564 14.9787 15.0515 14.5099C14.2513 14.0365 13.6334 13.3783 13.1978 12.5355C12.7622 11.688 12.5444 10.7055 12.5444 9.58807C12.5444 8.46117 12.7622 7.47633 13.1978 6.63352C13.6334 5.78598 14.2513 5.12784 15.0515 4.65909C15.8564 4.18561 16.8105 3.94886 17.9137 3.94886C19.0169 3.94886 19.9686 4.18561 20.7688 4.65909C21.5737 5.12784 22.194 5.78598 22.6296 6.63352C23.0652 7.47633 23.283 8.46117 23.283 9.58807C23.283 10.7055 23.0652 11.688 22.6296 12.5355C22.194 13.3783 21.5737 14.0365 20.7688 14.5099C19.9686 14.9787 19.0169 15.2131 17.9137 15.2131ZM17.9279 12.8693C18.4298 12.8693 18.8488 12.7273 19.185 12.4432C19.5212 12.1544 19.7745 11.7614 19.945 11.2642C20.1201 10.767 20.2077 10.2012 20.2077 9.56676C20.2077 8.93229 20.1201 8.36648 19.945 7.86932C19.7745 7.37216 19.5212 6.97917 19.185 6.69034C18.8488 6.40151 18.4298 6.2571 17.9279 6.2571C17.4213 6.2571 16.9951 6.40151 16.6495 6.69034C16.3086 6.97917 16.0505 7.37216 15.8754 7.86932C15.7049 8.36648 15.6197 8.93229 15.6197 9.56676C15.6197 10.2012 15.7049 10.767 15.8754 11.2642C16.0505 11.7614 16.3086 12.1544 16.6495 12.4432C16.9951 12.7273 17.4213 12.8693 17.9279 12.8693ZM25.2504 19.0909V4.09091H28.2333V5.9233H28.3683C28.5008 5.62973 28.6926 5.33144 28.9435 5.02841C29.1992 4.72064 29.5307 4.46496 29.9379 4.26136C30.3498 4.05303 30.8612 3.94886 31.4719 3.94886C32.2674 3.94886 33.0013 4.1572 33.6737 4.57386C34.346 4.9858 34.8834 5.60843 35.2859 6.44176C35.6883 7.27036 35.8896 8.30966 35.8896 9.55966C35.8896 10.7765 35.6931 11.804 35.3001 12.642C34.9118 13.4754 34.3815 14.1075 33.7092 14.5384C33.0415 14.9645 32.2934 15.1776 31.4648 15.1776C30.8777 15.1776 30.3782 15.0805 29.9663 14.8864C29.5591 14.6922 29.2253 14.4484 28.9648 14.1548C28.7044 13.8565 28.5056 13.5559 28.3683 13.2528H28.2759V19.0909H25.2504ZM28.212 9.54545C28.212 10.1941 28.302 10.7599 28.4819 11.2429C28.6618 11.7259 28.9222 12.1023 29.2631 12.3722C29.604 12.6373 30.0183 12.7699 30.506 12.7699C30.9985 12.7699 31.4151 12.6349 31.756 12.3651C32.0969 12.0904 32.355 11.7116 32.5302 11.2287C32.7101 10.741 32.8001 10.1799 32.8001 9.54545C32.8001 8.91572 32.7125 8.36174 32.5373 7.88352C32.3621 7.4053 32.104 7.03125 31.7631 6.76136C31.4222 6.49148 31.0032 6.35653 30.506 6.35653C30.0136 6.35653 29.5969 6.48674 29.256 6.74716C28.9199 7.00758 28.6618 7.37689 28.4819 7.85511C28.302 8.33333 28.212 8.89678 28.212 9.54545ZM37.9634 15V0.454545H41.0387V6.45597H47.2816V0.454545H50.3498V15H47.2816V8.99148H41.0387V15H37.9634ZM55.9393 15.206C55.2433 15.206 54.623 15.0852 54.0785 14.8438C53.534 14.5975 53.1031 14.2353 52.7859 13.7571C52.4734 13.2741 52.3171 12.6728 52.3171 11.9531C52.3171 11.3471 52.4284 10.8381 52.6509 10.4261C52.8735 10.0142 53.1765 9.68277 53.56 9.43182C53.9435 9.18087 54.3791 8.99148 54.8668 8.86364C55.3593 8.7358 55.8754 8.64583 56.4151 8.59375C57.0496 8.52746 57.561 8.46591 57.9492 8.40909C58.3375 8.34754 58.6192 8.25758 58.7944 8.1392C58.9696 8.02083 59.0572 7.84564 59.0572 7.61364V7.57102C59.0572 7.12121 58.9151 6.7732 58.631 6.52699C58.3517 6.28078 57.954 6.15767 57.4379 6.15767C56.8933 6.15767 56.4601 6.27841 56.1381 6.51989C55.8162 6.75663 55.6031 7.05492 55.4989 7.41477L52.7006 7.1875C52.8427 6.52462 53.122 5.9517 53.5387 5.46875C53.9554 4.98106 54.4928 4.60701 55.1509 4.34659C55.8138 4.08144 56.5808 3.94886 57.4521 3.94886C58.0581 3.94886 58.6381 4.01989 59.1921 4.16193C59.7508 4.30398 60.2456 4.52415 60.6765 4.82244C61.1121 5.12074 61.4554 5.50426 61.7063 5.97301C61.9573 6.43703 62.0827 6.99337 62.0827 7.64205V15H59.2134V13.4872H59.1282C58.953 13.8281 58.7186 14.1288 58.4251 14.3892C58.1315 14.6449 57.7788 14.8461 57.3668 14.9929C56.9549 15.1349 56.479 15.206 55.9393 15.206ZM56.8058 13.1179C57.2508 13.1179 57.6438 13.0303 57.9847 12.8551C58.3256 12.6752 58.5932 12.4337 58.7873 12.1307C58.9814 11.8277 59.0785 11.4844 59.0785 11.1009V9.94318C58.9838 10.0047 58.8536 10.0616 58.6879 10.1136C58.5269 10.161 58.3446 10.206 58.141 10.2486C57.9374 10.2865 57.7338 10.322 57.5302 10.3551C57.3266 10.3835 57.1419 10.4096 56.9762 10.4332C56.6211 10.4853 56.311 10.5682 56.0458 10.6818C55.7807 10.7955 55.5747 10.9493 55.4279 11.1435C55.2811 11.3329 55.2077 11.5696 55.2077 11.8537C55.2077 12.2656 55.3569 12.5805 55.6552 12.7983C55.9582 13.0114 56.3417 13.1179 56.8058 13.1179ZM64.43 15V4.09091H67.3633V5.99432H67.4769C67.6758 5.31723 68.0096 4.80587 68.4783 4.46023C68.9471 4.10985 69.4869 3.93466 70.0977 3.93466C70.2492 3.93466 70.4125 3.94413 70.5877 3.96307C70.7629 3.98201 70.9168 4.00805 71.0494 4.04119V6.72585C70.9073 6.68324 70.7108 6.64536 70.4599 6.61222C70.2089 6.57907 69.9793 6.5625 69.771 6.5625C69.3259 6.5625 68.9281 6.65956 68.5778 6.85369C68.2321 7.04309 67.9575 7.30824 67.7539 7.64915C67.555 7.99006 67.4556 8.38305 67.4556 8.82812V15H64.43ZM76.1257 15.1776C75.2971 15.1776 74.5466 14.9645 73.8743 14.5384C73.2067 14.1075 72.6764 13.4754 72.2834 12.642C71.8951 11.804 71.701 10.7765 71.701 9.55966C71.701 8.30966 71.9022 7.27036 72.3047 6.44176C72.7071 5.60843 73.2422 4.9858 73.9098 4.57386C74.5821 4.1572 75.3184 3.94886 76.1186 3.94886C76.7294 3.94886 77.2384 4.05303 77.6456 4.26136C78.0575 4.46496 78.389 4.72064 78.6399 5.02841C78.8956 5.33144 79.0897 5.62973 79.2223 5.9233H79.3146V0.454545H82.3331V15H79.3501V13.2528H79.2223C79.0803 13.5559 78.879 13.8565 78.6186 14.1548C78.3629 14.4484 78.0291 14.6922 77.6172 14.8864C77.21 15.0805 76.7128 15.1776 76.1257 15.1776ZM77.0845 12.7699C77.5722 12.7699 77.9841 12.6373 78.3203 12.3722C78.6612 12.1023 78.9216 11.7259 79.1016 11.2429C79.2862 10.7599 79.3786 10.1941 79.3786 9.54545C79.3786 8.89678 79.2886 8.33333 79.1087 7.85511C78.9287 7.37689 78.6683 7.00758 78.3274 6.74716C77.9865 6.48674 77.5722 6.35653 77.0845 6.35653C76.5874 6.35653 76.1683 6.49148 75.8274 6.76136C75.4865 7.03125 75.2285 7.4053 75.0533 7.88352C74.8781 8.36174 74.7905 8.91572 74.7905 9.54545C74.7905 10.1799 74.8781 10.741 75.0533 11.2287C75.2332 11.7116 75.4912 12.0904 75.8274 12.3651C76.1683 12.6349 76.5874 12.7699 77.0845 12.7699ZM86.9727 15L84.0039 4.09091H87.065L88.7553 11.4205H88.8548L90.6161 4.09091H93.6204L95.4102 11.3778H95.5025L97.1644 4.09091H100.218L97.2567 15H94.0536L92.1786 8.1392H92.0437L90.1687 15H86.9727ZM104.943 15.206C104.247 15.206 103.627 15.0852 103.082 14.8438C102.538 14.5975 102.107 14.2353 101.79 13.7571C101.477 13.2741 101.321 12.6728 101.321 11.9531C101.321 11.3471 101.432 10.8381 101.655 10.4261C101.877 10.0142 102.18 9.68277 102.564 9.43182C102.947 9.18087 103.383 8.99148 103.871 8.86364C104.363 8.7358 104.879 8.64583 105.419 8.59375C106.054 8.52746 106.565 8.46591 106.953 8.40909C107.341 8.34754 107.623 8.25758 107.798 8.1392C107.973 8.02083 108.061 7.84564 108.061 7.61364V7.57102C108.061 7.12121 107.919 6.7732 107.635 6.52699C107.356 6.28078 106.958 6.15767 106.442 6.15767C105.897 6.15767 105.464 6.27841 105.142 6.51989C104.82 6.75663 104.607 7.05492 104.503 7.41477L101.705 7.1875C101.847 6.52462 102.126 5.9517 102.543 5.46875C102.959 4.98106 103.497 4.60701 104.155 4.34659C104.818 4.08144 105.585 3.94886 106.456 3.94886C107.062 3.94886 107.642 4.01989 108.196 4.16193C108.755 4.30398 109.25 4.52415 109.68 4.82244C110.116 5.12074 110.459 5.50426 110.71 5.97301C110.961 6.43703 111.087 6.99337 111.087 7.64205V15H108.217V13.4872H108.132C107.957 13.8281 107.723 14.1288 107.429 14.3892C107.135 14.6449 106.783 14.8461 106.371 14.9929C105.959 15.1349 105.483 15.206 104.943 15.206ZM105.81 13.1179C106.255 13.1179 106.648 13.0303 106.989 12.8551C107.33 12.6752 107.597 12.4337 107.791 12.1307C107.985 11.8277 108.082 11.4844 108.082 11.1009V9.94318C107.988 10.0047 107.857 10.0616 107.692 10.1136C107.531 10.161 107.348 10.206 107.145 10.2486C106.941 10.2865 106.738 10.322 106.534 10.3551C106.33 10.3835 106.146 10.4096 105.98 10.4332C105.625 10.4853 105.315 10.5682 105.05 10.6818C104.785 10.7955 104.579 10.9493 104.432 11.1435C104.285 11.3329 104.212 11.5696 104.212 11.8537C104.212 12.2656 104.361 12.5805 104.659 12.7983C104.962 13.0114 105.346 13.1179 105.81 13.1179ZM113.434 15V4.09091H116.367V5.99432H116.481C116.68 5.31723 117.013 4.80587 117.482 4.46023C117.951 4.10985 118.491 3.93466 119.102 3.93466C119.253 3.93466 119.416 3.94413 119.592 3.96307C119.767 3.98201 119.921 4.00805 120.053 4.04119V6.72585C119.911 6.68324 119.715 6.64536 119.464 6.61222C119.213 6.57907 118.983 6.5625 118.775 6.5625C118.33 6.5625 117.932 6.65956 117.582 6.85369C117.236 7.04309 116.961 7.30824 116.758 7.64915C116.559 7.99006 116.46 8.38305 116.46 8.82812V15H113.434ZM126.081 15.2131C124.959 15.2131 123.993 14.9858 123.184 14.5312C122.379 14.072 121.758 13.4233 121.323 12.5852C120.887 11.7424 120.669 10.7457 120.669 9.59517C120.669 8.47301 120.887 7.48816 121.323 6.64062C121.758 5.79309 122.372 5.13258 123.162 4.65909C123.958 4.18561 124.891 3.94886 125.961 3.94886C126.68 3.94886 127.35 4.06487 127.971 4.29688C128.596 4.52415 129.14 4.86742 129.604 5.3267C130.073 5.78598 130.437 6.36364 130.698 7.05966C130.958 7.75095 131.088 8.56061 131.088 9.48864V10.3196H121.877V8.4446H128.24C128.24 8.009 128.146 7.62311 127.956 7.28693C127.767 6.95076 127.504 6.68797 127.168 6.49858C126.837 6.30445 126.451 6.20739 126.01 6.20739C125.551 6.20739 125.144 6.31392 124.789 6.52699C124.438 6.73532 124.164 7.01705 123.965 7.37216C123.766 7.72254 123.664 8.11316 123.659 8.54403V10.3267C123.659 10.8665 123.759 11.3329 123.958 11.7259C124.161 12.1188 124.448 12.4219 124.817 12.6349C125.186 12.848 125.624 12.9545 126.131 12.9545C126.467 12.9545 126.775 12.9072 127.054 12.8125C127.334 12.7178 127.573 12.5758 127.772 12.3864C127.971 12.197 128.122 11.965 128.226 11.6903L131.025 11.875C130.882 12.5473 130.591 13.1345 130.151 13.6364C129.715 14.1335 129.152 14.5218 128.461 14.8011C127.774 15.0758 126.981 15.2131 126.081 15.2131Z" fill="#F9A826"/>
</svg>
