<svg width="36" height="36" viewBox="0 0 36 36" fill="none" xmlns="http://www.w3.org/2000/svg">
<path d="M32.3014 8.97181C32.3253 9.3665 32.3253 9.75893 32.3253 10.1514C32.3253 22.1611 24.9007 36 11.332 36C7.15164 36 3.26806 34.5092 0 31.9201C0.593527 32.0035 1.16507 32.0328 1.78241 32.0328C5.10359 32.0427 8.33072 30.6754 10.9436 28.1514C9.40378 28.117 7.91109 27.4916 6.67396 26.3623C5.43682 25.233 4.51701 23.6562 4.04295 21.8521C4.49908 21.9356 4.95705 21.992 5.437 21.992C6.09831 21.992 6.76328 21.8792 7.38062 21.683C5.70951 21.2676 4.20685 20.1524 3.12814 18.527C2.04943 16.9017 1.46127 14.8665 1.46367 12.7676V12.6548C2.44738 13.3292 3.58864 13.7509 4.79768 13.8073C3.78482 12.9786 2.9543 11.8542 2.38023 10.5343C1.80615 9.21439 1.50637 7.74006 1.50763 6.24283C1.50763 4.55582 1.87218 3.00865 2.5115 1.65994C4.36561 4.46791 6.6781 6.76508 9.29921 8.40269C11.9203 10.0403 14.7916 10.9818 17.7271 11.1663C17.6135 10.4897 17.5439 9.78825 17.5439 9.08458C17.5434 7.89141 17.7339 6.70982 18.1046 5.60736C18.4752 4.5049 19.0187 3.50319 19.704 2.65949C20.3893 1.81579 21.2029 1.14665 22.0983 0.690316C22.9938 0.233983 23.9535 -0.000591759 24.9227 1.12105e-06C27.0476 1.12105e-06 28.9656 1.0961 30.3139 2.86881C31.9658 2.47552 33.5499 1.73307 34.9961 0.674352C34.4455 2.77367 33.292 4.5538 31.7519 5.68124C33.217 5.47551 34.6489 5.00115 36 4.2739C34.9909 6.08517 33.7404 7.6735 32.3014 8.97181V8.97181Z" fill="#F9A826"/>
</svg>
