<svg width="43" height="43" viewBox="0 0 43 43" fill="none" xmlns="http://www.w3.org/2000/svg">
<path d="M21.4982 13.2171C19.301 13.2171 17.1938 14.09 15.6401 15.6437C14.0864 17.1973 13.2136 19.3046 13.2136 21.5018C13.2136 23.699 14.0864 25.8063 15.6401 27.3599C17.1938 28.9136 19.301 29.7865 21.4982 29.7865C23.6955 29.7865 25.8027 28.9136 27.3564 27.3599C28.91 25.8063 29.7829 23.699 29.7829 21.5018C29.7829 19.3046 28.91 17.1973 27.3564 15.6437C25.8027 14.09 23.6955 13.2171 21.4982 13.2171ZM21.4982 26.8822C20.0708 26.8822 18.7018 26.3151 17.6925 25.3058C16.6831 24.2964 16.1161 22.9274 16.1161 21.5C16.1161 20.0726 16.6831 18.7036 17.6925 17.6942C18.7018 16.6849 20.0708 16.1178 21.4982 16.1178C22.9257 16.1178 24.2946 16.6849 25.304 17.6942C26.3133 18.7036 26.8804 20.0726 26.8804 21.5C26.8804 22.9274 26.3133 24.2964 25.304 25.3058C24.2946 26.3151 22.9257 26.8822 21.4982 26.8822Z" fill="#F9A826"/>
<path d="M30.1107 14.844C31.1774 14.844 32.0422 13.9792 32.0422 12.9126C32.0422 11.8459 31.1774 10.9811 30.1107 10.9811C29.044 10.9811 28.1793 11.8459 28.1793 12.9126C28.1793 13.9792 29.044 14.844 30.1107 14.844Z" fill="#F9A826"/>
<path d="M36.7883 10.9489C36.3735 9.8778 35.7397 8.9051 34.9274 8.09308C34.115 7.28105 33.1421 6.64758 32.0709 6.23322C30.8173 5.76265 29.493 5.50821 28.1543 5.48072C26.4289 5.40547 25.8824 5.38397 21.5072 5.38397C17.1319 5.38397 16.5711 5.38397 14.8601 5.48072C13.5224 5.5068 12.199 5.7613 10.9471 6.23322C9.87557 6.6471 8.90239 7.2804 8.08999 8.09249C7.2776 8.90457 6.64393 9.87751 6.22964 10.9489C5.75898 12.2024 5.50512 13.5268 5.47893 14.8655C5.40189 16.5891 5.3786 17.1355 5.3786 21.5126C5.3786 25.8878 5.3786 26.445 5.47893 28.1596C5.50581 29.4998 5.75843 30.8221 6.22964 32.078C6.64509 33.149 7.27937 34.1216 8.09197 34.9335C8.90456 35.7455 9.87759 36.379 10.9489 36.7937C12.1985 37.2832 13.5224 37.5558 14.8637 37.5999C16.5891 37.6752 17.1355 37.6985 21.5108 37.6985C25.886 37.6985 26.4468 37.6985 28.1579 37.5999C29.4964 37.5727 30.8207 37.3189 32.0744 36.8492C33.1454 36.4339 34.1181 35.7999 34.9303 34.9876C35.7425 34.1754 36.3766 33.2027 36.7919 32.1318C37.2631 30.8776 37.5157 29.5553 37.5426 28.2152C37.6196 26.4916 37.6429 25.9451 37.6429 21.5681C37.6429 17.1911 37.6429 16.6356 37.5426 14.921C37.5217 13.5634 37.2666 12.2196 36.7883 10.9489ZM34.6061 28.0271C34.5945 29.0596 34.406 30.0825 34.0488 31.0514C33.7798 31.7481 33.3679 32.3808 32.8396 32.9088C32.3113 33.4367 31.6784 33.8483 30.9815 34.1169C30.0234 34.4725 29.0113 34.661 27.9894 34.6741C26.2873 34.753 25.8072 34.7727 21.4427 34.7727C17.0746 34.7727 16.6285 34.7727 14.8941 34.6741C13.8728 34.6616 12.8612 34.4731 11.9039 34.1169C11.2045 33.8499 10.5691 33.4391 10.0385 32.9111C9.508 32.383 9.09422 31.7494 8.82398 31.0514C8.47182 30.0929 8.28345 29.0821 8.26677 28.0611C8.18973 26.359 8.17181 25.8788 8.17181 21.5143C8.17181 17.1481 8.17181 16.7019 8.26677 14.9658C8.27835 13.9338 8.46682 12.9115 8.82398 11.9433C9.37043 10.5296 10.4902 9.41701 11.9039 8.87593C12.8617 8.52143 13.8729 8.33299 14.8941 8.31872C16.598 8.24168 17.0764 8.22018 21.4427 8.22018C25.809 8.22018 26.2569 8.22018 27.9894 8.31872C29.0114 8.33102 30.0236 8.51952 30.9815 8.87593C31.6783 9.14517 32.3112 9.55713 32.8394 10.0854C33.3677 10.6136 33.7796 11.2464 34.0488 11.9433C34.401 12.9017 34.5894 13.9126 34.6061 14.9336C34.6831 16.6374 34.7028 17.1158 34.7028 21.4821C34.7028 25.8466 34.7028 26.316 34.6258 28.0288H34.6061V28.0271Z" fill="#F9A826"/>
</svg>
